<?xml version="1.0" encoding="UTF-8" standalone="no"?>
<!-- Created with Inkscape (http://www.inkscape.org/) -->

<svg
   width="800"
   height="800"
   viewBox="0 0 211.66667 211.66667"
   version="1.1"
   id="svg1"
   inkscape:version="1.3.2 (091e20e, 2023-11-25, custom)"
   sodipodi:docname="Computer_Device_material.svg"
   inkscape:export-filename="Computer_Device_material.jpg"
   inkscape:export-xdpi="96"
   inkscape:export-ydpi="96"
   xmlns:inkscape="http://www.inkscape.org/namespaces/inkscape"
   xmlns:sodipodi="http://sodipodi.sourceforge.net/DTD/sodipodi-0.dtd"
   xmlns="http://www.w3.org/2000/svg"
   xmlns:svg="http://www.w3.org/2000/svg">
  <sodipodi:namedview
     id="namedview1"
     pagecolor="#ffffff"
     bordercolor="#666666"
     borderopacity="1.0"
     inkscape:showpageshadow="2"
     inkscape:pageopacity="0.0"
     inkscape:pagecheckerboard="true"
     inkscape:deskcolor="#d1d1d1"
     inkscape:document-units="mm"
     inkscape:zoom="1.8451602"
     inkscape:cx="286.15402"
     inkscape:cy="442.50901"
     inkscape:window-width="3840"
     inkscape:window-height="2054"
     inkscape:window-x="2389"
     inkscape:window-y="827"
     inkscape:window-maximized="1"
     inkscape:current-layer="layer1" />
  <defs
     id="defs1" />
  <g
     inkscape:label="icon"
     inkscape:groupmode="layer"
     id="layer1"
     transform="matrix(0.7572427,0,0,0.7572427,-197.06374,-197.06374)">
    <path
       d="m 260.23855,511.80915 v -41.92878 h 27.95199 V 316.14323 q 0,-11.53039 8.21119,-19.7416 8.2108,-8.21079 19.7412,-8.21079 h 209.64231 v 27.95239 H 316.14293 v 153.73714 h 83.85676 v 41.92878 z m 181.68953,0 q -5.9396,0 -9.958,-4.0184 -4.018,-4.01799 -4.018,-9.95799 V 358.07161 q 0,-5.94 4.018,-9.95799 4.0184,-4.0184 9.958,-4.0184 h 83.85716 q 5.93961,0 9.958,4.0184 4.018,4.01799 4.018,9.95799 v 139.76115 q 0,5.94 -4.018,9.95799 -4.01839,4.0184 -9.958,4.0184 z m 13.97639,-41.92878 h 55.90438 v -97.83276 h -55.90438 z m 0,0 h 55.90438 z"
       id="path1"
       style="stroke-width:0.349404;fill:#04457e;fill-opacity:1" />
  </g>
</svg>
