<?xml version="1.0" encoding="UTF-8" standalone="no"?>
<!-- Created with Inkscape (http://www.inkscape.org/) -->

<svg
   width="800"
   height="800"
   viewBox="0 0 211.66667 211.66667"
   version="1.1"
   id="svg1"
   inkscape:version="1.3.2 (091e20e, 2023-11-25, custom)"
   sodipodi:docname="Physical_Characteristic_material.svg"
   inkscape:export-filename="Physical_Characteristic_material.jpg"
   inkscape:export-xdpi="96"
   inkscape:export-ydpi="96"
   xmlns:inkscape="http://www.inkscape.org/namespaces/inkscape"
   xmlns:sodipodi="http://sodipodi.sourceforge.net/DTD/sodipodi-0.dtd"
   xmlns="http://www.w3.org/2000/svg"
   xmlns:svg="http://www.w3.org/2000/svg">
  <sodipodi:namedview
     id="namedview1"
     pagecolor="#ffffff"
     bordercolor="#666666"
     borderopacity="1.0"
     inkscape:showpageshadow="2"
     inkscape:pageopacity="0.0"
     inkscape:pagecheckerboard="true"
     inkscape:deskcolor="#d1d1d1"
     inkscape:document-units="mm"
     inkscape:zoom="1.7205674"
     inkscape:cx="286.24279"
     inkscape:cy="442.58656"
     inkscape:window-width="3840"
     inkscape:window-height="2054"
     inkscape:window-x="2389"
     inkscape:window-y="827"
     inkscape:window-maximized="1"
     inkscape:current-layer="layer1" />
  <defs
     id="defs1" />
  <g
     inkscape:label="icon"
     inkscape:groupmode="layer"
     id="layer1"
     transform="matrix(0.7572427,0,0,0.7572427,-197.06374,-197.06374)">
    <path
       d="m 520.70329,363.55418 -19.57836,-19.57837 10.48841,-10.83822 -44.75095,-44.75094 -10.83822,10.48841 -19.92817,-19.92818 10.4888,-10.83822 q 8.04092,-8.04091 19.92818,-7.86641 11.88686,0.1601 19.92818,8.21622 l 45.10035,45.10036 q 8.04131,8.04131 8.04131,19.75367 0,11.71195 -8.04131,19.75327 z M 352.88716,531.72012 q -8.04132,8.04132 -19.75327,8.04132 -11.71236,0 -19.75327,-8.04132 l -45.10076,-45.10075 q -8.04131,-8.04092 -8.04131,-19.75327 0,-11.71196 8.04131,-19.75327 l 10.48841,-10.48841 19.92818,19.92818 -10.83822,10.4884 45.10075,45.10076 10.48841,-10.83822 19.92817,19.92817 z m 138.798,-117.47137 19.92818,-19.92818 -105.93393,-105.93392 -19.92817,19.92818 z m -97.89261,97.89301 19.92818,-20.27799 -105.58452,-105.58451 -20.27798,19.92818 z m -2.09728,-81.81078 38.4579,-38.10809 -22.37568,-22.37567 -38.10808,38.4579 z m 22.02586,101.38914 q -8.04132,8.04132 -19.92818,8.04132 -11.88726,0 -19.92818,-8.04132 L 268.28026,426.13561 q -8.04131,-8.04091 -8.04131,-19.92817 0,-11.88687 8.04131,-19.92818 l 19.92818,-19.92818 q 8.04131,-8.04091 19.75327,-8.04091 11.71235,0 19.75327,8.04091 l 22.02625,22.02586 38.4579,-38.45789 -22.02626,-21.67605 q -8.04091,-8.04131 -8.04091,-19.92817 0,-11.88687 8.04091,-19.92818 l 19.92818,-19.92818 q 8.04131,-8.04131 19.75367,-8.04131 11.71195,0 19.75327,8.04131 L 531.54191,374.3924 q 8.04131,8.04131 8.04131,19.75327 0,11.71235 -8.04131,19.75367 l -19.92817,19.92817 q -8.04132,8.04091 -19.92818,8.04091 -11.88686,0 -19.92818,-8.04091 l -21.67604,-22.02626 -38.4579,38.4579 22.02586,22.02626 q 8.04091,8.04091 8.04091,19.75327 0,11.71195 -8.04091,19.75327 z"
       id="path1"
       style="stroke-width:0.349617;fill:#04457e;fill-opacity:1" />
  </g>
</svg>
