<?xml version="1.0" encoding="UTF-8" standalone="no"?>
<!-- Created with Inkscape (http://www.inkscape.org/) -->

<svg
   width="800"
   height="800"
   viewBox="0 0 211.66667 211.66667"
   version="1.1"
   id="svg1"
   inkscape:version="1.3.2 (091e20e, 2023-11-25, custom)"
   sodipodi:docname="Professional_material.svg"
   inkscape:export-filename="Professional_material.jpg"
   inkscape:export-xdpi="96"
   inkscape:export-ydpi="96"
   xmlns:inkscape="http://www.inkscape.org/namespaces/inkscape"
   xmlns:sodipodi="http://sodipodi.sourceforge.net/DTD/sodipodi-0.dtd"
   xmlns="http://www.w3.org/2000/svg"
   xmlns:svg="http://www.w3.org/2000/svg">
  <sodipodi:namedview
     id="namedview1"
     pagecolor="#ffffff"
     bordercolor="#666666"
     borderopacity="1.0"
     inkscape:showpageshadow="2"
     inkscape:pageopacity="0.0"
     inkscape:pagecheckerboard="true"
     inkscape:deskcolor="#d1d1d1"
     inkscape:document-units="mm"
     inkscape:zoom="1.1638857"
     inkscape:cx="286.11057"
     inkscape:cy="442.05372"
     inkscape:window-width="2400"
     inkscape:window-height="1494"
     inkscape:window-x="-11"
     inkscape:window-y="-11"
     inkscape:window-maximized="1"
     inkscape:current-layer="layer1" />
  <defs
     id="defs1" />
  <g
     inkscape:label="icon"
     inkscape:groupmode="layer"
     id="layer1"
     transform="matrix(0.7572427,0,0,0.7572427,-197.06374,-197.06374)">
    <path
       d="m 288.19056,532.77343 q -11.53,0 -19.74121,-8.2112 -8.2108,-8.2108 -8.2108,-19.7412 V 351.08338 q 0,-11.53041 8.2108,-19.74121 8.21121,-8.2108 19.74121,-8.2108 h 55.90482 v -27.95241 q 0,-11.5304 8.2108,-19.74121 8.2112,-8.2112 19.74161,-8.2112 h 55.90441 q 11.53041,0 19.74121,8.2112 8.2112,8.21081 8.2112,19.74121 v 27.95241 h 55.90442 q 11.5304,0 19.74121,8.2108 8.2112,8.2108 8.2112,19.74121 v 153.73765 q 0,11.5304 -8.2112,19.7412 -8.21081,8.2112 -19.74121,8.2112 z m 0,-27.9524 H 511.80903 V 351.08338 H 288.19056 Z M 372.04779,323.13137 H 427.9522 V 295.17896 H 372.04779 Z M 288.19056,504.82103 V 351.08338 Z"
       id="path1"
       style="stroke-width:0.349404;fill:#04457e;fill-opacity:1" />
  </g>
</svg>
