<?xml version="1.0" encoding="UTF-8" standalone="no"?>
<!-- Generator: Adobe Illustrator 19.0.0, SVG Export Plug-In . SVG Version: 6.00 Build 0)  -->

<svg
   version="1.1"
   id="Livello_1"
   x="0px"
   y="0px"
   viewBox="0 0 800 800"
   style="enable-background:new 0 0 800 800;"
   xml:space="preserve"
   sodipodi:docname="Legal_Entity_material.svg"
   inkscape:export-filename="Legal_Entity_material.jpg"
   inkscape:export-xdpi="96"
   inkscape:export-ydpi="96"
   inkscape:version="1.3.2 (091e20e, 2023-11-25, custom)"
   xmlns:inkscape="http://www.inkscape.org/namespaces/inkscape"
   xmlns:sodipodi="http://sodipodi.sourceforge.net/DTD/sodipodi-0.dtd"
   xmlns="http://www.w3.org/2000/svg"
   xmlns:svg="http://www.w3.org/2000/svg"><defs
   id="defs7" /><sodipodi:namedview
   id="namedview7"
   pagecolor="#ffffff"
   bordercolor="#666666"
   borderopacity="1.0"
   inkscape:showpageshadow="2"
   inkscape:pageopacity="0.0"
   inkscape:pagecheckerboard="true"
   inkscape:deskcolor="#d1d1d1"
   inkscape:zoom="1.4207715"
   inkscape:cx="-18.299917"
   inkscape:cy="395.91166"
   inkscape:window-width="2160"
   inkscape:window-height="3806"
   inkscape:window-x="6229"
   inkscape:window-y="-11"
   inkscape:window-maximized="1"
   inkscape:current-layer="g7" />
<style
   type="text/css"
   id="style1">
	.st0{display:none;fill:#FFFFFF;}
	.st1{display:none;}
	.st2{display:inline;fill:#FEFEFE;}
	.st3{fill:#1E477B;}
	.st4{fill:#FEFEFE;}
</style>


<g
   id="g7"
   style="display:inline"
   inkscape:label="icon"
   transform="matrix(1.7477001,0,0,1.7477001,-316.08127,-280.6418)">
	
	
	
	
<path
   d="M 0,800 V 150 L 200,0 400,150 v 90 h 400 v 560 z m 80,-80 h 80 V 640 H 80 Z m 0,-160 h 80 V 480 H 80 Z m 0,-160 h 80 V 320 H 80 Z m 0,-160 h 80 V 160 H 80 Z m 160,0 h 80 v -80 h -80 z m 0,480 H 720 V 320 H 240 Z M 480,480 v -80 h 160 v 80 z m 0,160 v -80 h 160 v 80 z M 320,480 v -80 h 80 v 80 z m 0,160 v -80 h 80 v 80 z"
   id="path1"
   style="enable-background:new 0 0 800 800;stroke-width:1;fill:#1e477b;fill-opacity:1"
   transform="matrix(0.57218055,0,0,0.57218055,180.85555,160.57778)" /></g>
</svg>
