<?xml version="1.0" encoding="UTF-8" standalone="no"?>
<!-- Generator: Adobe Illustrator 19.0.0, SVG Export Plug-In . SVG Version: 6.00 Build 0)  -->

<svg
   version="1.1"
   id="Livello_1"
   x="0px"
   y="0px"
   viewBox="0 0 800 800"
   style="enable-background:new 0 0 800 800;"
   xml:space="preserve"
   sodipodi:docname="human_resource_management.svg"
   inkscape:version="1.3.2 (091e20e, 2023-11-25, custom)"
   inkscape:export-filename="Human_Resource_Management.jpg"
   inkscape:export-xdpi="96"
   inkscape:export-ydpi="96"
   xmlns:inkscape="http://www.inkscape.org/namespaces/inkscape"
   xmlns:sodipodi="http://sodipodi.sourceforge.net/DTD/sodipodi-0.dtd"
   xmlns="http://www.w3.org/2000/svg"
   xmlns:svg="http://www.w3.org/2000/svg"><defs
   id="defs13"><inkscape:path-effect
     effect="skeletal"
     id="path-effect5"
     is_visible="true"
     lpeversion="1"
     pattern="M 0,18.867925 C 0,8.4528302 8.4528302,0 18.867925,0 c 10.415094,0 18.867924,8.4528302 18.867924,18.867925 0,10.415094 -8.45283,18.867924 -18.867924,18.867924 C 8.4528302,37.735849 0,29.283019 0,18.867925 Z"
     copytype="single_stretched"
     prop_scale="2.1679708"
     scale_y_rel="false"
     spacing="0"
     normal_offset="0"
     tang_offset="0"
     prop_units="false"
     vertical_pattern="false"
     hide_knot="false"
     fuse_tolerance="0" /></defs><sodipodi:namedview
   id="namedview13"
   pagecolor="#ffffff"
   bordercolor="#666666"
   borderopacity="1.0"
   inkscape:showpageshadow="2"
   inkscape:pageopacity="0.0"
   inkscape:pagecheckerboard="0"
   inkscape:deskcolor="#d1d1d1"
   inkscape:zoom="6.0212105"
   inkscape:cx="674.53214"
   inkscape:cy="466.35141"
   inkscape:window-width="2558"
   inkscape:window-height="1360"
   inkscape:window-x="1273"
   inkscape:window-y="0"
   inkscape:window-maximized="0"
   inkscape:current-layer="g2"
   inkscape:export-bgcolor="#ffffff00" />
<style
   type="text/css"
   id="style1">
	.st0{display:none;fill:#FFFFFF;}
	.st1{display:none;}
	.st2{display:inline;fill:#FFFFFF;}
	.st3{fill:#1E477B;}
	.st4{fill:#03447E;}
</style>



<g
   id="g3"
   inkscape:label="icon"
   transform="matrix(1.422078,0,0,1.422078,-88.032036,-152.42114)"><g
     id="g2"
     inkscape:label="employee"
     transform="translate(0,24.544533)"><g
       id="g13"
       inkscape:label="person"
       transform="translate(143.26084,5.1459349)"
       style="display:inline">
	
	
	
	
	
	<path
   class="st3"
   d="m 389.6,585.1 c -27.1,0.2 -54.2,0.3 -81.3,0.5 -1.7,0 -3.4,-0.1 -5,-0.1 -2.1,-0.1 -3.1,-0.8 -3.4,-3 -0.3,-2.3 -0.6,-4.6 -0.6,-6.9 -0.1,-5.8 -0.1,-11.7 -0.1,-17.5 0,-6.8 2.1,-13.1 5,-19.1 5.2,-10.9 13,-19.5 22.6,-26.5 12.5,-9 26.4,-14.4 41.5,-17.3 7.1,-1.4 14.3,-2.1 21.5,-2 20,0.2 38.9,4.5 56.2,14.8 12.2,7.2 22.2,16.7 28.9,29.4 2.5,4.8 4.4,9.9 5.4,15.3 0.2,1.2 0.3,2.4 0.3,3.6 0.2,6.5 0.6,12.9 0.6,19.4 0,1.8 -0.2,3.7 -0.4,5.5 -0.1,1.9 -1.1,2.9 -3,3.2 -0.9,0.1 -1.7,0.2 -2.6,0.3 -14.8,0.4 -29.6,0.4 -44.4,0.4 -13.7,0 -27.4,0 -41,0 -0.2,-0.1 -0.2,-0.1 -0.2,0 z M 305.3,563 c 0.2,3.4 0.1,6.9 0.8,10.2 0.5,2.1 0.9,2.4 2.9,2.1 0.6,-0.1 1.1,-0.1 1.7,-0.1 7.2,-0.6 14.4,0.2 21.6,0 10.1,-0.3 20.2,0.1 30.2,0.1 35.9,0.1 71.8,0.3 107.7,-0.1 1,0 2.1,0 3.1,0.1 2,0.3 2.6,0 3,-2 0.6,-3 1,-6 0.7,-9 -0.3,-3.2 -1,-6.3 -1.9,-9.4 -3.1,-10.8 -8.6,-20.1 -16.1,-28.3 -10.7,-11.6 -23.8,-19.1 -38.8,-23.8 -9.9,-3.1 -20.1,-4.3 -30.4,-4.9 -7.2,-0.4 -14.4,0 -21.5,1.4 -7.5,1.5 -14.7,3.7 -21.5,7.2 -10.4,5.3 -19.5,12.2 -27.3,20.9 -3.8,4.2 -7,8.7 -9.5,13.7 -3.2,7 -4.9,14.2 -4.7,21.9 z"
   id="path10"
   style="fill:#1e477b" />
	<path
   id="path11"
   style="fill:#1e477b"
   class="st3"
   d="M 347.30566 430.59495 C 345.70229 435.82364 345.14288 441.33004 345.59986 447.09946 C 346.39986 456.69945 349.60008 465.40047 355.70007 472.80046 C 365.20006 484.20045 377.49978 489.80014 392.49976 488.50014 C 404.99975 487.40014 415.10013 481.60007 422.70012 471.60008 C 428.60011 463.80009 431.69981 454.9 432.59981 445.20001 C 433.02764 440.23707 432.86025 435.3488 431.49007 430.59495 L 423.8538 430.59495 C 425.17259 434.38834 425.90021 438.45816 425.90021 442.70036 C 425.90021 463.90034 408.59953 480.19972 388.19955 479.89972 C 368.09957 479.69972 351.60064 463.39949 351.70064 442.89951 C 351.68019 438.5441 352.42605 434.41567 353.77727 430.59495 L 347.30566 430.59495 z " />
	<path
   class="st3"
   d="m 391.1,572.5 c -25.2,0 -50.4,0 -75.6,0 -1.4,0 -2.9,0 -4.3,0.1 -1.2,0.1 -1.9,-0.4 -2.1,-1.7 -1.1,-5.8 -1,-11.6 0.5,-17.4 2.5,-9.8 7.6,-18.1 14.4,-25.4 9.3,-10.1 20.5,-17.3 33.3,-22 10.8,-4 21.9,-5.9 33.4,-4.9 11.2,1 22.4,2.5 33,6.5 15.9,6 29.6,15.1 39.5,29.2 6.9,9.9 10.5,20.9 10.2,33.1 0,1.9 -0.4,2.2 -2.8,2.2 -16.6,0 -33.3,0 -49.9,0 -9.8,0 -19.7,0 -29.5,0 -0.1,0.1 -0.1,0.2 -0.1,0.3 z"
   id="path12"
   style="display:inline;fill:#1e477b" />
	<path
   id="path13"
   style="display:inline;fill:#1e477b"
   class="st3"
   d="M 357.28638 430.59495 C 355.80352 434.34933 354.96999 438.35038 354.89936 442.39958 C 354.59936 460.29956 369.19957 476.20048 388.19955 476.50048 C 407.39953 476.80048 423.29986 460.60009 422.59986 442.6001 C 422.79379 438.5033 422.09985 434.42572 420.66332 430.59495 L 357.28638 430.59495 z " />
</g><g
       id="g8"
       inkscape:label="helmet"
       transform="translate(0,-8)"
       style="display:inline"><path
         id="path5"
         style="display:inline;fill:#1e477b;fill-opacity:1;stroke:none;stroke-width:0.999989;stroke-linecap:butt;stroke-linejoin:miter;stroke-dasharray:none;stroke-opacity:1"
         d="m 554.53761,393.37834 c -0.099,2.82071 0.10788,5.58669 0.59295,8.26737 0.12127,0.67017 0.26076,1.33462 0.41633,1.99382 0.46671,1.97756 1.08556,3.90448 1.84511,5.76722 0.50637,1.24184 1.0743,2.45461 1.70201,3.63651 0.22514,0.4239 0.46668,0.83888 0.70691,1.25442 l 17.05038,0.69565 a 1.5792521,1.496459 2.3363608 0 1 -0.12201,2.99043 l -14.95898,-0.61033 c 0.17862,0.25378 0.35012,0.51229 0.53458,0.7621 1.19476,1.61795 2.51028,3.15221 3.93444,4.59125 0.47472,0.47968 0.96177,0.94914 1.46022,1.40716 0.49845,0.45802 1.00821,0.90461 1.5295,1.34008 1.04259,0.87093 2.1298,1.6963 3.25849,2.47169 1.12868,0.77538 2.29874,1.50063 3.50647,2.17335 3.6232,2.01816 7.5866,3.55942 11.79437,4.52535 0.70129,0.16097 1.40898,0.30619 2.12343,0.43484 0.15059,0.0271 0.30459,0.045 0.45573,0.0707 l -0.36647,8.98222 a 2.8549099,2.7052398 2.3363608 0 0 2.74228,2.81939 l 4.2059,0.1716 a 2.8549099,2.7052398 2.3363608 0 0 2.96429,-2.58657 l 3.96643,-97.21682 a 2.8549099,2.7052398 2.3363608 0 0 -2.74372,-2.81946 l -4.20591,-0.1716 a 2.8549099,2.7052398 2.3363608 0 0 -2.96284,2.58663 l -0.29656,7.26871 c -0.30741,0.0271 -0.61771,0.0444 -0.92329,0.0775 -0.72124,0.0782 -1.43802,0.17251 -2.14842,0.28386 l -0.001,-6e-5 c -0.71085,0.11144 -1.41583,0.24013 -2.11488,0.38393 -2.09718,0.43139 -4.13889,1.00594 -6.11295,1.71371 -1.31604,0.47184 -2.60194,1.00287 -3.85386,1.58928 -1.2519,0.58641 -2.47018,1.22811 -3.65043,1.92248 -1.18026,0.69437 -2.32206,1.44175 -3.42313,2.23747 -0.55053,0.39786 -1.09055,0.80744 -1.61987,1.2294 -0.52932,0.42196 -1.04766,0.85675 -1.55484,1.30197 -0.50717,0.44523 -1.00405,0.90146 -1.48813,1.36913 -0.48408,0.46767 -0.95555,0.94586 -1.41559,1.43515 -0.9201,0.97858 -1.79205,2.00016 -2.61036,3.06026 -0.40916,0.53005 -0.80496,1.06939 -1.18726,1.61856 -0.009,0.0131 -0.0171,0.0269 -0.0262,0.0401 l 17.0186,0.69436 a 1.5789092,1.4961341 2.3363608 0 1 -0.12195,2.98905 l -18.11341,-0.73902 a 1.5789092,1.4961341 2.3363608 0 1 -0.53576,-0.1658 c -0.11377,0.19642 -0.23608,0.38794 -0.34654,0.58631 -0.32577,0.58498 -0.63735,1.17807 -0.93343,1.77972 -0.59216,1.20329 -1.12427,2.43865 -1.59206,3.70363 -0.23389,0.63249 -0.45124,1.272 -0.65263,1.91867 -0.40278,1.29334 -0.73938,2.61547 -1.00649,3.96057 -0.13355,0.67255 -0.24957,1.35104 -0.34779,2.0353 -0.19645,1.3685 -0.3217,2.75846 -0.37119,4.16882 z m 37.5288,49.27937 3.84659,-94.27977 a 1.7631626,1.6707279 2.3363608 0 1 1.83022,-1.59782 l 1.65376,0.0675 a 1.7631626,1.6707279 2.3363608 0 1 1.69397,1.74161 l -3.8466,94.27977 a 1.7631626,1.6707279 2.3363608 0 1 -1.83021,1.59782 l -1.65377,-0.0675 a 1.7631626,1.6707279 2.3363608 0 1 -1.69396,-1.74161 z"
         transform="matrix(0.0408753,0.94932816,-1.0018507,0.03873239,903.18279,-142.9919)" /></g></g><g
     id="g11-4"
     transform="matrix(0.48619003,0,0,0.48619003,66.359741,327.17409)"
     inkscape:label="employer">
	<path
   class="st4"
   d="m 498.4,326.1 c -0.2,0.2 -0.3,0.5 -0.2,0.8 -0.8,0.5 -1.2,1.1 -0.8,2.1 -0.2,0.2 -0.3,0.5 -0.2,0.8 -0.9,0.4 -0.9,1.3 -1.2,2 -1.8,4.7 -3.6,9.4 -6,13.9 -5.7,10.7 -13.2,20 -22.6,27.7 -8.1,6.6 -17,11.7 -26.8,15.1 -11.4,4 -23.2,5.5 -35.4,4.5 -8.8,-0.7 -17.2,-2.6 -25.3,-5.9 -15.4,-6.3 -28.1,-16.1 -38,-29.5 -5.1,-6.8 -9.2,-14.2 -12.2,-22.2 -3.3,-9 -5.7,-18.3 -6.4,-27.9 -0.5,-7.5 -0.4,-15.1 1,-22.5 2.6,-14.4 8.2,-27.6 17,-39.5 6,-8 13.2,-14.6 21.2,-20.3 9.5,-6.9 20.3,-10.8 31.6,-13.2 9.7,-2.1 19.5,-2.6 29.3,-1.1 3.5,0.5 6.9,1.4 10.3,2.1 4.4,1 8.7,1.9 12.9,3.6 5.9,2.4 11.8,4.9 17,8.7 6.7,4.9 12.8,10.4 18.1,16.7 5.2,6.3 10.1,12.7 13.7,20.2 3.7,7.7 5.9,15.7 6.7,24.1 1.2,13 -0.1,25.9 -3.8,38.4 0.1,0.3 -0.4,0.8 0.1,1.4 z M 335.7,300.2 c -0.4,4.5 0.5,9.8 1.6,15.2 0.9,4.6 2.4,9.1 4.3,13.4 7,16.4 18.3,28.9 33.9,37.5 9.6,5.3 19.9,8.2 30.8,9.1 7.4,0.5 14.7,0.2 21.9,-1.3 4.6,-1 9.1,-2.5 13.4,-4.2 9.5,-3.8 17.8,-9.4 25,-16.6 5,-4.9 9.1,-10.4 12.6,-16.5 3.5,-6.1 6.1,-12.5 7.8,-19.2 1.1,-4.4 1.7,-8.9 2.1,-13.5 0.7,-7.3 0,-14.5 -1.5,-21.7 -2.1,-9.6 -6,-18.5 -11.5,-26.7 -5.7,-8.4 -12.8,-15.5 -21.4,-21.1 -6.1,-3.9 -12.5,-7 -19.5,-9.1 -5.9,-1.8 -11.9,-3.1 -18.1,-3.2 -5.7,-0.1 -11.5,-0.3 -17.2,0.9 -4.5,0.9 -8.9,1.8 -13.2,3.4 -3.8,1.5 -7.4,3.4 -11,5.3 -15.8,8.4 -26.9,21.1 -34,37.3 -4.1,9.5 -6.1,19.6 -6,31 z"
   id="path8-7"
   style="fill:#184377" />
	<path
   class="st4"
   d="m 496.4,591.6 c -10.3,0 -26.4,-0.2 -42.6,0 -32.8,0.4 -65.6,-0.1 -98.4,0.5 -23.3,0.4 -46.6,0.1 -69.8,0.5 -14.2,0.2 -28.3,0.1 -42.5,0.3 -2.9,0 -5.7,-0.4 -8.6,-0.5 -2.2,-0.1 -4,-1.3 -4.8,-3.7 -0.8,-2.5 -1,-5 -1.2,-7.5 -0.7,-8.7 -0.6,-17.4 -0.7,-26.1 -0.1,-7.1 0,-14.2 0.2,-21.3 0.2,-7.5 1.6,-14.7 4.1,-21.8 1.6,-4.4 3,-8.8 4.9,-13 2.7,-6.1 6.1,-11.9 9.8,-17.6 6.9,-10.8 15.6,-20 24.9,-28.7 4,-3.8 8.4,-7.1 12.9,-10.3 8.6,-6.3 17.7,-11.7 27.3,-16.5 11.4,-5.7 23.3,-10.2 35.5,-13.8 9.6,-2.8 19.4,-4.9 29.2,-6.5 7,-1.2 14.1,-1.8 21.2,-2.2 6.9,-0.4 13.9,-1.1 20.8,-0.7 7.7,0.4 15.3,0.8 22.9,1.7 12.3,1.3 24.3,3.6 36.2,6.9 11.7,3.2 23,7.3 34,12.3 7,3.2 13.8,6.8 20.3,10.8 8,4.9 15.6,10.3 22.7,16.5 7.3,6.3 14.2,13.1 20.2,20.7 6.3,8 11.9,16.5 16.2,25.7 3.8,8.1 6.8,16.5 8.7,25.3 0.9,4.1 0.8,8.3 1.2,12.4 0.4,4.5 0.4,8.9 0.6,13.4 0.3,7.4 0.5,14.9 0.5,22.3 0,4.1 -0.3,8.1 -0.5,12.2 -0.1,1.6 -0.7,3.1 -1.2,4.6 -0.4,1 -1.3,1.7 -2.4,2.2 -2.7,1.1 -5.6,1.3 -8.5,1.3 -10.2,0.1 -20.3,0 -30.5,0.3 -18.8,0.2 -37.8,0 -62.6,0.3 z M 240.2,546.7 c -0.3,7.5 0.9,15 2,22.4 0.4,2.7 2.5,4 5,3.3 1.3,-0.4 2.7,-0.4 4,-0.4 1.6,0 3.2,0 4.8,-0.1 7.8,-0.6 15.7,-0.4 23.5,0 3.5,0.2 7,0.8 10.5,0.3 2.8,-0.4 5.6,-0.5 8.3,-0.5 4.9,0.1 9.8,0.1 14.6,0.2 7.5,0.2 15,0.1 22.6,0.1 82.7,0.2 165.4,0.5 248.1,0 1.3,0 2.5,0.1 3.8,0.4 2.6,0.7 4.7,-0.8 5.5,-3.3 0.7,-2.5 0.8,-5 1.2,-7.5 1.2,-6.9 0,-13.7 -0.4,-20.5 0,-0.4 -0.2,-0.8 -0.3,-1.2 -0.8,-3 -1,-6.2 -2.7,-8.9 -0.2,-0.3 -0.2,-0.6 -0.3,-0.9 -1.2,-5.5 -3,-10.7 -5.2,-15.8 -2.7,-6.2 -5.9,-12.2 -9.4,-18 -4.1,-6.9 -8.7,-13.4 -13.9,-19.5 -6.8,-8 -14.3,-15.2 -22.5,-21.9 -8.7,-7.1 -18.1,-13.1 -28,-18.4 -5.1,-2.7 -10.3,-5.1 -15.6,-7.3 -4.1,-1.7 -8.1,-3.3 -12.3,-4.8 -2.8,-1 -5.6,-1.8 -8.5,-2.6 -5.3,-1.6 -10.7,-2.8 -16,-4 -3.8,-0.9 -7.7,-1 -11.6,-2 -2.1,-0.5 -4.3,-1 -6.6,-1.3 -6,-0.6 -11.9,-1.2 -17.9,-1.4 -2.1,-0.1 -4.3,-0.7 -6.4,-0.8 -10.5,-0.3 -20.9,-0.6 -31.4,0.7 -1.3,0.2 -2.7,0.2 -4,0.4 -3.7,0.7 -7.4,1.2 -11.1,1.9 -4.1,0.8 -8.1,1.7 -12.1,2.8 -5.8,1.5 -11.5,3.3 -17.1,5.5 -6.1,2.4 -12.2,4.8 -18,8 -6.9,3.8 -13.7,8 -20.2,12.4 -6.8,4.6 -13.1,9.6 -19.1,15.2 -5.4,5 -10.4,10.4 -15.5,15.7 -4.9,5.2 -9.3,10.8 -12.9,16.9 -7.4,12.7 -13.2,26 -14.4,41 0,4.6 -0.3,9.3 -0.5,13.9 z"
   id="path9-0"
   style="fill:#184377" />
	<path
   class="st4"
   d="m 482.3,298.7 c 0.5,4.6 -0.4,9.9 -1.5,15.1 -1.1,5 -2.8,9.8 -5.1,14.4 -2.2,4.5 -4.7,8.9 -7.9,12.8 -7.6,9.4 -16.8,16.8 -28,21.6 -4.3,1.8 -8.7,3.3 -13.2,4.2 -7.9,1.6 -15.9,1.9 -24,0.8 -10,-1.4 -19.2,-4.9 -27.7,-10 -4.8,-2.9 -9.2,-6.6 -13.1,-10.8 -7.6,-8.1 -13.1,-17.5 -16.3,-28.2 -2.9,-10 -3.5,-20.2 -1.9,-30.6 1.3,-8.5 4.1,-16.4 8.4,-23.8 5.6,-9.7 13.2,-17.5 22.5,-23.8 2.4,-1.7 5.1,-3 7.6,-4.5 2.8,-1.6 6,-2.2 9,-3.2 7.5,-2.6 15.3,-3.7 23.3,-3.5 6.5,0.2 12.8,1.2 19.1,3.1 4.1,1.2 8,2.8 11.7,4.7 10,5.3 18.3,12.5 24.8,21.8 3.8,5.4 6.6,11.2 8.8,17.5 2.4,7 3.6,14.2 3.5,22.4 z"
   id="path10-0-3"
   style="fill:#184377" />
	<path
   class="st4"
   d="m 417.5,565.5 c -29,0 -57.9,-0.2 -86.9,0.1 -23.4,0.2 -46.7,0.2 -70.1,0.4 -3,0 -5.9,0.2 -8.9,0.3 -2.2,0 -2.7,-0.4 -3.1,-2.5 -2,-9.5 -2.2,-19 -0.9,-28.6 0.6,-4.5 1.7,-8.9 3.1,-13.3 2.3,-7.4 5.3,-14.5 9.1,-21.3 2.9,-5.2 6.2,-10.1 9.7,-14.8 5.7,-7.7 12.2,-14.6 19.3,-21 9.6,-8.7 20,-16.3 31.3,-22.7 8.2,-4.7 16.7,-8.8 25.5,-12.1 6.5,-2.5 13.1,-4.5 19.8,-6.2 5.5,-1.4 11.1,-2 16.6,-3.7 1.6,-0.5 2.1,-0.2 3,1.5 2.1,3.7 4.1,7.4 6.2,11.1 2,3.6 4.1,7.2 6,10.9 0.7,1.4 1.7,1.9 3.2,1.9 8.6,0 17.3,0 25.9,-0.1 1.6,0 3.4,0.7 4.7,-0.3 1.1,-0.9 1.8,-2.4 2.6,-3.7 2.4,-3.3 3.6,-7.1 5.7,-10.5 1.2,-1.9 2.2,-3.9 3.3,-5.9 1.2,-2 2.4,-2.6 4.8,-2.2 9.7,1.7 19.3,3.9 28.6,6.8 4.9,1.5 9.8,3.4 14.6,5.3 6.7,2.7 13.2,5.8 19.5,9.2 8.3,4.5 16.2,9.6 23.7,15.4 7.2,5.6 14,11.7 20.1,18.4 8,8.8 14.9,18.4 20.3,29 3.1,6.1 5.8,12.5 7.7,19.1 2.1,7 3.6,14.2 4.2,21.6 0.4,4.6 0.2,9.3 0.5,13.9 0.2,2.8 -0.8,3.7 -3.6,3.7 -25.3,0 -50.6,0 -75.8,-0.1 -29.9,0 -59.8,0 -89.7,0 0,0.2 0,0.3 0,0.4 z m 25.9,-35.1 c -0.1,-0.9 -0.2,-1.7 -0.3,-2.6 -0.8,-5.9 -1.6,-11.8 -2.4,-17.8 -0.6,-4.3 -1.2,-8.5 -1.8,-12.8 -0.7,-4.8 -1.4,-9.6 -2,-14.4 -0.4,-3.2 -0.8,-6.3 -1.2,-9.5 -0.5,-3.5 -1,-6.9 -1.6,-10.4 -0.5,-3.5 -0.8,-7.1 -1.5,-10.7 -0.4,-1.8 -0.4,-1.8 -2.2,-1.8 -3,-0.1 -6.1,-0.1 -9.1,-0.1 -7.4,0 -14.7,0.1 -22.1,0.2 -1.6,0 -1.7,0.1 -1.9,1.7 -0.7,4.3 -1.2,8.7 -1.7,13.1 -1,8.6 -2.4,17.1 -3.5,25.6 -0.7,5.5 -1.3,11.1 -2,16.6 -0.4,3.6 -0.9,7.1 -1.4,10.7 -0.4,3.3 -0.9,6.6 -1.3,10 -0.1,1.1 -0.1,2.2 0.7,3.2 0.8,0.9 1.5,1.9 2.3,2.8 5.8,5.6 11.2,11.6 16.9,17.4 2.6,2.6 5.2,5.2 7.7,7.9 0.9,0.9 1.5,0.9 2.4,0 1.5,-1.6 3,-3.1 4.6,-4.6 6.7,-6.9 13.4,-13.7 20.1,-20.6 0.9,-1.2 1.7,-2.3 1.3,-3.9 z"
   id="path11-3-9"
   style="fill:#184377" />
</g><g
     id="g1"
     inkscape:label="gears"
     transform="rotate(105,434.24612,317.96411)"><path
       class="st4"
       d="m 379.13867,202.5668 c 0,-1.8 0,-3.7 0,-5.5 0,-2.6 0.9,-3.5 3.4,-3.5 9,-0.2 17.9,-0.3 26.9,-0.4 0.5,0 1,0 1.4,0 2.5,0.1 3,0.6 3,3.2 0,3.4 0,6.7 0,10.1 0,1.3 0.2,2 1.6,2.4 4.5,1.3 9,2.8 13.2,5.1 1,0.5 1.6,0 2.3,-0.6 2.6,-2.6 5.3,-5.1 8,-7.6 2.2,-2.1 3.1,-2.1 5.2,0 6.2,6.3 12.4,12.7 18.6,19.1 2.9,3 2.9,3.4 -0.2,6.3 -2.3,2.1 -4.5,4.3 -6.9,6.4 -0.7,0.7 -1,1.3 -0.5,2.3 3.3,5.8 5.4,12.1 6.8,18.6 0.4,1.9 0.5,1.9 2.3,2 3.3,0.3 6.5,0.6 9.8,1 3,0.4 3.6,1.3 3.3,4.3 -0.6,6.8 -1.2,13.5 -1.7,20.3 -0.2,3 -0.8,6 -0.7,9.1 0,1 -0.6,1.6 -1.5,1.8 -0.6,0.2 -1.3,0.2 -1.9,0.1 -3.6,-0.4 -7.3,-0.8 -10.9,-1.2 -2.4,-0.3 -2.5,-0.3 -3.6,2.1 -1.7,3.6 -3.7,7.1 -6.1,10.3 -0.9,1.2 -0.8,2.1 0,3.2 2.3,3.1 4.4,6.3 6.6,9.4 1.7,2.4 1.5,3.5 -0.9,5.2 -6.9,4.9 -13.8,9.8 -20.7,14.8 -0.3,0.2 -0.5,0.4 -0.8,0.5 -3.4,2.3 -4.3,2.2 -6.5,-1.2 -1.9,-2.8 -3.8,-5.5 -5.7,-8.3 -0.7,-1 -1.3,-1.4 -2.6,-0.9 -4.4,1.7 -9.1,2.7 -13.7,3.2 -5.1,0.6 -10.2,0.6 -15.3,-0.1 -0.6,-0.1 -1.3,-0.1 -1.9,-0.3 -1.5,-0.3 -2.4,0.3 -3.1,1.6 -1.8,3.1 -3.7,6.2 -5.6,9.2 -1.8,3 -2.6,3.2 -5.5,1.5 -7.5,-4.4 -15,-8.9 -22.5,-13.3 -0.3,-0.2 -0.7,-0.4 -1,-0.6 -2.2,-1.7 -2.4,-2.7 -0.9,-5.1 1.6,-2.6 3.2,-5.2 4.8,-7.7 0.6,-1 0.6,-1.7 -0.3,-2.5 -4.4,-4.2 -8.2,-9 -11.2,-14.3 -0.6,-1 -1.2,-1.3 -2.4,-1 -3.6,0.7 -7.2,1.3 -10.9,1.9 -2.3,0.4 -3.4,-0.4 -3.8,-2.8 -1.2,-6.9 -2.4,-13.9 -3.7,-20.8 -0.4,-2.3 -0.9,-4.6 -1.1,-6.9 -0.3,-2.9 0.2,-3.4 3.2,-3.9 2.9,-0.4 5.8,-0.9 8.8,-1.4 1,-0.2 1.5,-0.6 1.6,-1.7 0.6,-6 1.7,-11.8 3.8,-17.5 0.7,-1.9 0.7,-1.9 -0.9,-3.2 -2.8,-2.3 -5.5,-4.6 -8.3,-6.9 -2.3,-1.9 -2.4,-3 -0.5,-5.2 5.4,-6.6 10.9,-13.2 16.4,-19.8 0.2,-0.2 0.3,-0.4 0.5,-0.5 2.8,-3.1 3.5,-3.2 6.7,-0.5 2.3,2 4.7,3.9 6.9,6 1,0.9 1.7,0.8 2.7,0.1 4.6,-3.1 9.4,-5.8 14.6,-7.6 1.3,-0.4 1.7,-1.2 1.6,-2.5 -0.1,-1.8 0,-3.7 0,-5.5 -0.1,-0.3 -0.2,-0.3 -0.2,-0.3 z m 44.9,67.5 c 0.1,-13.4 -11.2,-24.7 -24.8,-24.6 -13.4,0 -24.6,11.2 -24.6,24.6 0.1,14.3 11.7,24.7 24.7,24.7 13.6,0 24.9,-11.5 24.7,-24.7 z"
       id="path7"
       style="fill:#184377" /><path
       class="st4"
       d="m 501.53867,286.2668 c 2.8,0 5.6,0 8.4,0 2.7,0 2.9,0.2 2.9,2.8 0,1.8 0,3.7 0,5.5 0,1.3 0.3,2.1 1.7,2.4 2.6,0.6 5,1.6 7.4,2.8 1.1,0.6 1.9,0.4 2.7,-0.5 1.6,-1.6 3.2,-3.1 4.9,-4.6 1.5,-1.3 2.1,-1.3 3.5,0 4.4,4.5 8.7,8.9 13,13.4 1.1,1.2 1.1,1.5 0,2.6 -1.5,1.5 -3,2.9 -4.5,4.3 -1.4,1.3 -1.4,1.4 -0.6,3.1 1.7,3.6 3.2,7.3 3.9,11.3 0.3,1.3 1.1,1.9 2.4,1.8 2,0 4,0.3 6,0.5 1.7,0.2 2.3,0.9 2.1,2.5 -0.8,6.1 -1,12.3 -1.6,18.4 -0.3,2.8 -0.9,3.1 -3.5,2.7 -2.1,-0.4 -4.3,-0.5 -6.4,-0.8 -0.9,-0.1 -1.5,0.1 -1.9,1 -1.2,2.5 -2.6,5 -4.3,7.2 -0.6,0.9 -0.4,1.6 0.2,2.4 1.3,1.9 2.7,3.8 4,5.7 1.3,2 1.2,2.6 -0.6,4 -4.6,3.3 -9.2,6.6 -13.9,9.9 -0.4,0.3 -0.8,0.5 -1.2,0.8 -1.1,0.6 -2,0.4 -2.7,-0.6 -1.2,-1.8 -2.5,-3.5 -3.7,-5.3 -1.3,-2 -1.3,-1.9 -3.5,-1.3 -5.9,1.8 -11.9,2.7 -18,1.6 -2,-0.3 -3.3,0.1 -4.3,2 -0.8,1.6 -1.9,3.1 -2.8,4.7 -1.4,2.3 -2,2.5 -4.4,1.1 -4.3,-2.5 -8.5,-5.1 -12.8,-7.6 -0.9,-0.5 -1.9,-0.9 -2.6,-1.7 -1.2,-1.1 -1.3,-1.5 -0.5,-2.9 1,-1.7 2.1,-3.4 3.1,-5.1 0.5,-0.8 0.4,-1.4 -0.2,-2.1 -2.7,-2.7 -5.1,-5.7 -7.1,-9 -0.5,-0.9 -1.3,-1 -2.2,-0.9 -2.1,0.4 -4.2,0.8 -6.4,1.1 -2.1,0.3 -2.7,-0.2 -3,-2.1 -1,-5.7 -2,-11.3 -2.9,-17 -0.1,-0.4 -0.1,-0.8 -0.1,-1.2 0,-1.6 0.3,-2.2 2,-2.4 1.6,-0.3 3.2,-0.4 4.7,-0.7 1.6,-0.3 2.1,-0.1 2.3,-2.3 0.4,-3.5 1.2,-6.9 2.4,-10.2 0.4,-1.1 0.3,-1.9 -0.7,-2.7 -1.8,-1.4 -3.6,-3 -5.3,-4.5 -1.4,-1.3 -1.5,-2.1 -0.3,-3.5 3.6,-4.4 7.3,-8.7 10.9,-13.1 0.4,-0.4 0.7,-0.9 1.1,-1.2 1.1,-1 1.8,-1 2.9,0 1.5,1.2 2.9,2.5 4.4,3.7 1.7,1.4 1.7,1.4 3.5,0.3 2.7,-1.6 5.3,-3.2 8.3,-4.2 1.3,-0.5 1.9,-1.2 1.8,-2.7 -0.1,-2.2 -0.1,-4.3 -0.1,-6.5 0,-2 0.6,-2.6 2.6,-2.6 3,-0.1 6.1,0 9.1,0 -0.1,-0.2 -0.1,-0.2 -0.1,-0.3 z m 1.4,67.6 c 8.7,0.5 16.7,-7 16.7,-16.1 0.1,-9.1 -7.2,-16.4 -16.3,-16.6 -8.4,-0.2 -16.4,6.8 -16.6,16.1 -0.1,9.7 8.2,17 16.2,16.6 z"
       id="path9-1"
       style="fill:#184377" /></g><path
     class="st2"
     d="m 296.28841,265.26819 c -0.1,17.1 -0.2,34.2 -0.4,51.3 0,0.2 0,0.3 0,0.5 -0.1,2.9 -1.2,3.7 -4,2.8 -7.9,-2.6 -15.8,-5.3 -23.6,-8 -15.8,-5.4 -31.6,-11 -47.1,-17.1 -10,-3.9 -19.9,-7.9 -29.6,-12.4 -0.4,-0.2 -0.9,-0.4 -1.3,-0.6 -1.3,-0.7 -1.4,-1.2 -0.2,-2.1 1.6,-1.2 3.3,-2.3 4.9,-3.4 8.1,-5.3 16.2,-10.6 24.3,-15.8 2.1,-1.4 2.1,-1.4 1.5,-3.9 -2.3,-9.3 -6.4,-17.7 -11.8,-25.5 -4.7,-6.7 -10.2,-12.7 -16.5,-18 -7.6,-6.4 -15.9,-11.6 -24.8,-15.8 -8.6,-4 -17.5,-7 -26.8,-8.8 -8.8,-1.7 -17.6,-2.5 -26.5,-1.7 -10.7,0.9 -21.000003,3.4 -30.300003,8.9 -5.4,3.2 -10.3,7.3 -14.5,12 -1.7,1.9 -3.6,3.6 -5,5.8 -0.4,0.7 -1.2,1.3 -2,0.7 -0.8,-0.5 -0.8,-1.4 -0.5,-2.2 0.3,-0.7 0.6,-1.5 1,-2.2 5.2,-9.6 11.6,-18.2 19.8,-25.4 6.5,-5.6 13.8,-10.1 21.600003,-13.6 12.5,-5.5 25.7,-8.2 39.3,-9.1 10.3,-0.6 20.5,0.3 30.5,2.3 13.1,2.6 25.6,7.1 37.3,13.6 11.3,6.2 21.4,14 30.5,23.1 8.4,8.4 15.3,18 21.6,28.1 0.1,0.2 0.2,0.4 0.4,0.6 1,1.5 1.2,1.5 2.7,0.6 3.6,-2.3 7.1,-4.6 10.7,-6.9 5.4,-3.5 10.7,-7 16.1,-10.5 0.7,-0.4 1.3,-0.9 2.1,-1.2 0.7,-0.4 1.1,-0.1 1.2,0.6 0.1,0.6 0.1,1.1 0,1.7 -0.3,17.2 -0.4,34.4 -0.6,51.6 z"
     id="path4-1"
     style="fill:#04457e"
     inkscape:label="arrow" /></g></svg>
