<?xml version="1.0" encoding="UTF-8" standalone="no"?>
<!-- Generator: Adobe Illustrator 19.0.0, SVG Export Plug-In . SVG Version: 6.00 Build 0)  -->

<svg
   version="1.1"
   id="Livello_1"
   x="0px"
   y="0px"
   viewBox="0 0 800 800"
   style="enable-background:new 0 0 800 800;"
   xml:space="preserve"
   sodipodi:docname="Marketing.svg"
   inkscape:version="1.3.2 (091e20e, 2023-11-25, custom)"
   inkscape:export-filename="Marketing.jpg"
   inkscape:export-xdpi="96"
   inkscape:export-ydpi="96"
   xmlns:inkscape="http://www.inkscape.org/namespaces/inkscape"
   xmlns:sodipodi="http://sodipodi.sourceforge.net/DTD/sodipodi-0.dtd"
   xmlns="http://www.w3.org/2000/svg"
   xmlns:svg="http://www.w3.org/2000/svg"><defs
   id="defs5" /><sodipodi:namedview
   id="namedview5"
   pagecolor="#ffffff"
   bordercolor="#666666"
   borderopacity="1.0"
   inkscape:showpageshadow="2"
   inkscape:pageopacity="0.0"
   inkscape:pagecheckerboard="0"
   inkscape:deskcolor="#d1d1d1"
   inkscape:zoom="1.4551886"
   inkscape:cx="399.94816"
   inkscape:cy="399.94816"
   inkscape:window-width="2558"
   inkscape:window-height="1360"
   inkscape:window-x="1273"
   inkscape:window-y="0"
   inkscape:window-maximized="0"
   inkscape:current-layer="Livello_1" />
<style
   type="text/css"
   id="style1">
	.st0{display:none;fill:#FFFFFF;}
	.st1{fill:#214A7D;}
	.st2{fill:#04457E;}
</style>


<g
   id="g5"
   inkscape:label="icon"
   transform="matrix(1.637076,0,0,1.637076,-274.39914,-231.60029)">
	<path
   class="st1"
   d="m 364.8,310.7 c 2.4,0.5 5.2,1 7.9,1.6 13.4,2.7 26.8,5.5 40.2,8.2 2.4,0.5 2.5,0.4 2.9,-2.1 2.1,-13.2 4.1,-26.4 6.2,-39.6 0.3,-2.1 0.8,-4.3 0.9,-6.4 0.1,-3.4 3,-4.9 6,-2.6 6.7,5 13.5,9.8 20.2,14.6 5.4,3.9 10.8,7.7 16.2,11.6 1.7,1.2 2.2,1.1 3.3,-0.5 7.8,-11.1 15.6,-22.2 23.4,-33.4 1.1,-1.5 2.1,-3 3.2,-4.5 2.3,-3 4.5,-2.9 6.7,0.1 2.8,3.8 4.5,8.2 6.7,12.4 5,9.7 9.9,19.4 14.8,29.1 0.1,0.2 0.2,0.4 0.3,0.6 1,1.9 1.1,1.9 3.1,0.9 5.1,-2.7 10.1,-5.4 15.2,-8.2 7.6,-4.1 15.2,-8.2 22.8,-12.2 1.2,-0.6 2.3,-1.4 3.6,-1.9 2.6,-1.1 3.8,-0.3 3.9,2.5 0.7,12.8 1.4,25.6 2.1,38.3 0.2,3.5 0.3,7 0.6,10.5 0.1,2 0.4,2.2 2.3,2 6.2,-0.7 12.4,-1.4 18.6,-2.1 8.7,-1 17.5,-2.1 26.2,-3.1 1.2,-0.1 2.4,-0.1 3.6,-0.1 2,0.1 2.6,0.8 2.1,2.8 -0.5,2 -1,4 -1.7,6 -2.4,6.6 -5,13.1 -7.8,19.6 -3.1,7 -6,14.1 -9,21.2 -0.2,0.4 -0.3,0.7 -0.5,1.1 -0.5,1 -0.1,1.7 0.9,2.1 1.3,0.5 2.7,1 4,1.6 11.1,4.3 22.2,8.6 33.3,12.8 2.5,1 5,2.1 7.4,3.3 2.2,1.1 2.5,2.6 0.8,4.3 -1.5,1.5 -3.2,2.9 -4.8,4.4 -7.4,6.7 -14.9,13.3 -22.4,20 -3,2.7 -6,5.3 -8.9,8 -1.6,1.5 -1.6,1.6 -0.1,3.2 6.6,7 13.2,13.9 19.9,20.8 5.1,5.4 10.3,10.7 15.5,16.1 1.8,1.8 1.3,3.6 -1.2,4.2 -6.8,1.6 -13.7,3.2 -20.6,4.8 -10.3,2.4 -20.6,4.8 -30.8,7.2 -1.9,0.4 -2,0.7 -1.4,2.7 2.4,7.6 4.8,15.1 7.2,22.6 1.7,5.4 3.5,10.8 5.3,16.2 0.7,2.1 1.7,4.1 2.5,6.2 0.3,0.7 0.4,1.4 0.5,2.1 0.1,1.8 -0.7,2.5 -2.5,2.1 -10.1,-2.4 -20.4,-4 -30.6,-6 -5.6,-1.1 -11.3,-2.2 -17,-3.2 -0.2,0 -0.5,-0.1 -0.7,-0.1 -1.6,-0.2 -1.9,0 -2,1.6 -0.1,1.3 -0.2,2.6 -0.2,3.8 -0.4,10.2 -0.8,20.5 -1.2,30.7 -0.4,9.2 -0.9,18.4 -1.3,27.6 0,0.2 0,0.3 0,0.5 -0.1,1.6 -0.4,3.1 -2.1,3.7 -1.7,0.6 -2.7,-0.5 -3.8,-1.5 -10,-9.3 -20,-18.7 -30,-28 -4.8,-4.5 -9.7,-9.1 -14.5,-13.6 -1.8,-1.7 -1.9,-1.7 -3.4,0.5 -6.6,9.9 -13.3,19.8 -19.9,29.7 -2.3,3.5 -4.8,6.8 -7.4,10.1 -1.4,1.8 -1.9,1.8 -3.2,-0.1 -3.3,-4.6 -5.9,-9.7 -8.5,-14.8 -3.7,-7.4 -7.4,-14.7 -11.1,-22.1 -1.2,-2.4 -2.3,-4.8 -3.3,-7.2 -0.8,-1.9 -1.2,-2.1 -3.1,-1.3 -8.8,3.7 -17.7,7.5 -26.5,11.2 -22.5,9.5 -45.1,19.1 -67.6,28.6 -14.9,6.3 -29.9,12.6 -44.8,19 -13.6,5.8 -27.2,11.6 -40.8,17.3 -1.2,0.5 -2.4,0.9 -3.7,0.6 -1.1,-0.2 -1.5,-0.9 -0.9,-1.9 1,-1.7 2,-3.4 3.1,-5.1 7.1,-10.7 14.2,-21.4 21.4,-32.2 13.4,-20.1 26.8,-40.2 40.2,-60.3 10.3,-15.5 20.6,-31 31,-46.5 1.3,-1.9 2.6,-3.8 3.9,-5.8 1.3,-2 1.2,-2.2 -0.9,-3.1 -6.7,-2.8 -13.5,-5.5 -20.2,-8.2 -8.2,-3.3 -16.3,-6.6 -24.5,-9.9 -0.7,-0.3 -1.5,-0.6 -2.3,-0.8 -0.9,-0.3 -1.9,-0.7 -2,-1.8 -0.1,-1.1 0.7,-1.7 1.6,-2.2 1.4,-0.8 2.6,-1.8 3.9,-2.7 12.1,-9 24.2,-17.9 36.2,-26.8 0.2,-0.1 0.4,-0.3 0.6,-0.4 1.3,-1 1.3,-1.3 0.2,-2.4 -2.7,-2.5 -5.4,-5 -8.1,-7.5 -12,-11 -24.1,-22 -36.1,-33 -0.9,-0.9 -1.9,-1.7 -2.3,-3 -0.5,-1.6 0,-2.4 1.6,-2.7 4.7,-0.8 9.4,-1.8 14.2,-2.5 14.5,-2.3 29.1,-4.6 43.6,-6.9 1.1,-0.2 2.2,-0.3 3.3,-0.5 1.1,-0.2 1.5,-0.8 1.1,-1.9 -0.3,-0.8 -0.5,-1.7 -0.8,-2.5 -4.3,-13.4 -8.6,-26.8 -13,-40.2 -0.2,-0.7 -0.6,-1.3 -0.8,-2 -0.5,-3 1.1,-5.3 4.1,-5.3 z M 478,582.1 c 1.1,-0.3 1.4,-1.3 2,-2.1 4.5,-6.6 9,-13.2 13.4,-19.9 3.3,-5.1 7,-10 10,-15.2 1.2,-2.2 3.6,-2.5 5.5,-0.9 0.8,0.7 1.4,1.5 2.2,2.2 10.6,9.9 21.3,19.9 31.9,29.8 2.3,2.2 4.7,4.4 7,6.5 0.9,0.8 1.3,0.6 1.5,-0.6 0,-0.3 0,-0.6 0.1,-1 0.3,-6.3 0.5,-12.6 0.8,-18.9 0.4,-9.7 0.7,-19.3 1.2,-29 0.1,-2.6 -0.1,-5.3 0.8,-7.8 0.9,-2.7 2.3,-3.6 5.1,-3 8.3,1.5 16.5,3.1 24.7,4.6 5.2,1 10.4,2 15.6,3 1.7,0.3 2,0 1.6,-1.7 -0.1,-0.5 -0.3,-0.9 -0.4,-1.4 -2.4,-7.5 -4.8,-14.9 -7.2,-22.4 -1.7,-5.2 -3.3,-10.4 -5,-15.5 -1,-3 0.1,-4.9 3.2,-5.8 0.4,-0.1 0.8,-0.2 1.2,-0.3 4.4,-1 8.9,-2.1 13.3,-3.1 7.9,-1.8 15.7,-3.7 23.6,-5.5 2.3,-0.5 4.5,-1 6.8,-1.6 1.3,-0.3 1.4,-0.8 0.6,-1.8 -0.2,-0.2 -0.3,-0.3 -0.5,-0.5 -8.6,-9 -17.1,-17.9 -25.7,-26.9 -2,-2.1 -4.3,-4.1 -6,-6.5 -1.1,-1.4 -1,-1.8 0.2,-3.1 1.1,-1.3 2.5,-2.3 3.7,-3.4 8.8,-7.9 17.6,-15.8 26.4,-23.7 1.2,-1.1 2.4,-2.1 3.6,-3.2 1,-0.9 0.9,-1.3 -0.4,-1.9 -0.1,-0.1 -0.3,-0.1 -0.4,-0.2 -12.8,-4.9 -25.7,-9.8 -38.5,-14.8 -0.7,-0.3 -1.4,-0.5 -2,-0.8 -1.8,-1 -2.1,-2 -1.4,-4 0.8,-2.1 1.7,-4.1 2.6,-6.2 5,-11.6 9.9,-23.2 14.9,-34.9 1.2,-2.8 1.1,-3 -1.9,-2.6 -10.2,1.2 -20.3,2.5 -30.5,3.7 -4,0.5 -7.9,0.9 -11.9,1.4 -2.7,0.3 -3.9,-0.8 -4.1,-3.4 -0.1,-3 -0.3,-6.1 -0.5,-9.1 -0.6,-11.5 -1.3,-23 -1.9,-34.5 -0.2,-2.8 -0.4,-2.9 -2.9,-1.6 -7.2,3.9 -14.4,7.7 -21.5,11.6 -4.9,2.7 -9.8,5.4 -14.7,8 -2.1,1.1 -3.6,0.8 -5,-1.1 -0.3,-0.4 -0.5,-0.8 -0.7,-1.2 -2.3,-4.5 -4.7,-9.1 -7,-13.7 -4.2,-8.2 -8.3,-16.4 -12.5,-24.6 -0.9,-1.8 -1.2,-1.8 -2.4,-0.3 -0.2,0.3 -0.4,0.5 -0.5,0.8 -8.3,11.8 -16.7,23.6 -25,35.5 -1.7,2.5 -2.2,2.5 -4.6,0.9 -0.6,-0.4 -1.2,-0.8 -1.7,-1.3 -2.5,-2.7 -5.7,-4.6 -8.7,-6.7 -7.6,-5.5 -15.3,-11 -23,-16.5 -1.9,-1.4 -2.2,-1.2 -2.5,1 -0.7,4.2 -1.4,8.4 -2,12.6 -1.5,9.8 -3.2,19.6 -4.5,29.4 -0.4,2.9 -1.8,4.1 -4.7,3.7 -1.3,-0.2 -2.5,-0.6 -3.7,-0.8 -10,-2.1 -20,-4.1 -30.1,-6.2 -3.4,-0.7 -6.7,-1.4 -10.1,-2 -1.8,-0.3 -2.1,0 -1.6,1.7 1.1,3.7 2.4,7.3 3.5,11 3.4,10.3 6.8,20.7 9.1,31.3 0.5,2.2 0.5,2.2 -1.6,2.9 -3.4,1.1 -7,1.5 -10.6,2.1 -14,2.3 -28,4.4 -41.9,6.7 -0.9,0.1 -1.9,0.1 -2.7,0.8 0.1,1 1,1.4 1.6,2 11.9,10.9 23.8,21.8 35.8,32.7 1.1,1 2.2,1.9 3.1,3 2,2.2 1.8,5.1 -0.5,6.9 -0.9,0.8 -2,1.4 -2.9,2.1 -10.1,7.5 -20.2,14.9 -30.2,22.5 -0.9,0.7 -2.6,1.1 -2.4,2.4 0.2,1 1.8,1.2 2.8,1.6 11.1,4.5 22.3,8.9 33.4,13.3 1.9,0.8 3.9,1.5 5.7,2.4 2.9,1.5 3.2,3.1 1.6,5.8 -0.1,0.1 -0.2,0.3 -0.3,0.4 -7.9,11.9 -15.8,23.9 -23.6,35.8 -8,12.1 -15.9,24.2 -23.9,36.2 -8,12.1 -15.9,24.2 -23.9,36.2 -5.5,8.3 -11,16.7 -16.5,25 -0.3,0.5 -0.8,1 -0.6,1.7 0.7,0.5 1.2,0 1.8,-0.2 3.6,-1.5 7.2,-3 10.8,-4.6 11.3,-4.9 22.6,-9.8 33.9,-14.6 17.7,-7.6 35.4,-15.1 53.2,-22.7 15.4,-6.6 30.9,-13.2 46.3,-19.8 5.9,-2.6 12,-5 17.3,-8.7 1.7,-1.2 3.5,-0.7 4.7,1.1 0.8,1.2 1.4,2.5 2,3.8 5.7,11.2 11.3,22.4 17,33.6 0.5,1.4 1.1,2.9 2.2,4.1 z"
   id="path3"
   inkscape:label="sign" /><path
   class="st1"
   d="m 464,413.9 c -7.2,0 -14.4,0 -21.6,0 -2.5,0 -3,0.4 -3.5,2.9 -0.1,0.5 -0.1,1.1 -0.1,1.7 0,4.9 0,9.8 0,14.6 0,2.7 0.1,2.7 2.7,2.7 14.1,-0.1 28.2,-0.2 42.2,-0.3 0.9,0 1.8,0 2.6,0.1 2,0.3 3.3,1.8 3.3,3.6 0,1.7 -1.3,3.2 -3.3,3.6 -0.9,0.2 -1.7,0.2 -2.6,0.2 -13.4,0.1 -26.7,0.2 -40.1,0.3 -3.2,0 -3.4,0.3 -2.2,3.2 5,12.6 13.4,22.5 25.1,29.3 12.4,7.2 25.8,9.5 40,6.9 12,-2.2 22.3,-7.6 30.9,-16.2 1.5,-1.5 3.5,-2.6 5.5,-3.3 2.5,-0.8 5.2,0.2 7,2.5 1.6,2.1 1.9,5 0.5,7.2 -1.6,2.5 -3.3,4.9 -5.5,7 -9.2,8.7 -19.8,14.6 -32.1,17.3 -21.8,4.7 -41.6,0.1 -59.1,-13.7 -10.6,-8.4 -17.9,-19.3 -22.1,-32.2 -0.7,-2.3 -2.1,-4.3 -2.3,-6.8 -0.1,-0.7 -0.6,-0.9 -1.2,-0.9 -0.7,0 -1.4,0 -2.2,0 -10.9,0.1 -21.8,0.1 -32.6,0.2 -0.9,0 -1.8,0 -2.6,-0.2 -1.8,-0.4 -2.9,-2 -2.9,-3.6 0.1,-1.7 1.4,-3 3.2,-3.3 0.6,-0.1 1.1,-0.1 1.7,-0.1 10.7,-0.1 21.4,-0.3 32.2,-0.4 0.4,0 0.8,0 1.2,0 1.4,-0.1 1.7,-0.4 1.5,-1.8 -0.8,-4.4 -0.6,-8.9 -0.5,-13.4 0,-1.8 0,-3.7 0,-5.5 0,-1.1 -0.5,-1.6 -1.6,-1.6 -1.4,0 -2.9,0 -4.3,0 -8.6,0 -17.1,-0.1 -25.7,-0.1 -0.8,0 -1.6,0 -2.4,-0.2 -1.4,-0.4 -2.5,-1.7 -2.6,-3.1 -0.1,-1.5 0.5,-2.6 1.8,-3.4 0.9,-0.5 1.8,-0.7 2.8,-0.7 8.5,0.1 17,0 25.4,0.3 2.3,0.1 4.6,0 7,0.1 1.3,0 2,-0.4 2.5,-1.7 1.1,-3.3 2.2,-6.5 3.7,-9.6 6.8,-14.1 17.2,-24.7 31.1,-31.9 10.9,-5.6 22.6,-8.1 34.8,-7.4 18.3,1.1 33.8,8.3 46.5,21.5 1.1,1.1 2,2.5 3,3.8 1.8,2.4 1.8,4.3 0.3,6.6 -1.5,2.3 -4,3.5 -6.6,3 -1.3,-0.2 -2.4,-0.8 -3.3,-1.7 -10.5,-11.1 -23.6,-16.8 -38.7,-18 -8.3,-0.7 -16.4,0.8 -24.2,3.8 -13.1,5 -23.2,13.6 -30.2,25.8 -0.8,1.3 -1.4,2.7 -2.1,4.1 -0.7,1.4 -0.4,1.8 1.2,1.9 0.8,0 1.6,0 2.4,0 12.2,0 24.5,0 36.7,0 0.7,0 1.4,0 2.2,0 2.2,0.2 3.7,1.6 3.8,3.6 0.1,2.1 -1.4,3.6 -3.8,3.8 -0.7,0.1 -1.4,0 -2.2,0 -6.9,0 -13.8,0 -20.6,0 0,-0.3 0,-0.4 0,-0.5 z"
   id="path5"
   inkscape:label="euro" />
	<path
   class="st2"
   d="m 402,246.5 c -0.1,17.1 -0.2,34.2 -0.4,51.3 0,0.2 0,0.3 0,0.5 -0.1,2.9 -1.2,3.7 -4,2.8 -7.9,-2.6 -15.8,-5.3 -23.6,-8 -15.8,-5.4 -31.6,-11 -47.1,-17.1 -10,-3.9 -19.9,-7.9 -29.6,-12.4 -0.4,-0.2 -0.9,-0.4 -1.3,-0.6 -1.3,-0.7 -1.4,-1.2 -0.2,-2.1 1.6,-1.2 3.3,-2.3 4.9,-3.4 8.1,-5.3 16.2,-10.6 24.3,-15.8 2.1,-1.4 2.1,-1.4 1.5,-3.9 -2.3,-9.3 -6.4,-17.7 -11.8,-25.5 -4.7,-6.7 -10.2,-12.7 -16.5,-18 -7.6,-6.4 -15.9,-11.6 -24.8,-15.8 -8.6,-4 -17.5,-7 -26.8,-8.8 -8.8,-1.7 -17.6,-2.5 -26.5,-1.7 -10.7,0.9 -21,3.4 -30.3,8.9 -5.4,3.2 -10.3,7.3 -14.5,12 -1.7,1.9 -3.6,3.6 -5,5.8 -0.4,0.7 -1.2,1.3 -2,0.7 -0.8,-0.5 -0.8,-1.4 -0.5,-2.2 0.3,-0.7 0.6,-1.5 1,-2.2 5.2,-9.6 11.6,-18.2 19.8,-25.4 6.5,-5.6 13.8,-10.1 21.6,-13.6 12.5,-5.5 25.7,-8.2 39.3,-9.1 10.3,-0.6 20.5,0.3 30.5,2.3 13.1,2.6 25.6,7.1 37.3,13.6 11.3,6.2 21.4,14 30.5,23.1 8.4,8.4 15.3,18 21.6,28.1 0.1,0.2 0.2,0.4 0.4,0.6 1,1.5 1.2,1.5 2.7,0.6 3.6,-2.3 7.1,-4.6 10.7,-6.9 5.4,-3.5 10.7,-7 16.1,-10.5 0.7,-0.4 1.3,-0.9 2.1,-1.2 0.7,-0.4 1.1,-0.1 1.2,0.6 0.1,0.6 0.1,1.1 0,1.7 -0.3,17.2 -0.4,34.4 -0.6,51.6 z"
   id="path4"
   inkscape:label="arrow" />
	
</g>
</svg>
